<?xml version="1.0" encoding="UTF-8"?>
<svg width="35px" height="35px" viewBox="0 0 35 35" version="1.1" xmlns="http://www.w3.org/2000/svg" xmlns:xlink="http://www.w3.org/1999/xlink">
    <!-- Generator: Sketch 64 (93537) - https://sketch.com -->
    <title>ic_add</title>
    <desc>Created with Sketch.</desc>
    <g id="Single-Position-Page-(Orders)" stroke="none" stroke-width="1" fill="none" fill-rule="evenodd">
        <g id="Artboard-(Position---Orders)" transform="translate(-835.000000, -354.000000)">
            <g id="Orders" transform="translate(340.000000, 172.000000)">
                <g id="Orders-(Completed)" transform="translate(0.000000, 174.000000)">
                    <g id="Header-2">
                        <g id="Header">
                            <g id="ic_add" transform="translate(495.000000, 8.000000)">
                                <g id="plus" transform="translate(9.891304, 9.891304)" fill="#FE9238" fill-rule="nonzero">
                                    <path d="M13.8314631,6.2197509 L8.99328319,6.2197509 L8.99328319,1.38559305 C8.99328319,0.620399791 8.37589993,0 7.61070667,0 C6.84551341,0 6.22846532,0.620399791 6.22846532,1.38592822 L6.22846532,6.2231026 L1.38793924,6.2231026 C0.622745981,6.2231026 0.000670340131,6.84350239 0.00100496601,7.60903082 C0.000670340131,7.99145987 0.15518374,8.34204776 0.405555779,8.59241979 C0.656262988,8.84346217 1.0021585,9.00199761 1.38425237,9.00199761 L6.22846532,9.00199761 L6.22846532,13.8324686 C6.22846532,14.2152328 6.38029736,14.5617987 6.63100457,14.8118355 C6.88171178,15.0625427 7.22660178,15.2177265 7.60936599,15.2177265 C8.37422408,15.2177265 8.99328319,14.5973267 8.99328319,13.8324686 L8.99328319,9.00166244 L13.8314631,9.00166244 C14.5966563,9.00166244 15.2170561,8.37589993 15.2167211,7.61070667 C15.2163858,6.84584858 14.595986,6.2197509 13.8314631,6.2197509 Z" id="Path"></path>
                                </g>
                                <circle id="Oval" stroke="#FE9238" stroke-width="2" cx="17.5" cy="17.5" r="16.5"></circle>
                            </g>
                        </g>
                    </g>
                </g>
            </g>
        </g>
    </g>
</svg>