<?xml version="1.0" encoding="UTF-8"?>
<svg width="25px" height="19px" viewBox="0 0 25 19" version="1.1" xmlns="http://www.w3.org/2000/svg" xmlns:xlink="http://www.w3.org/1999/xlink">
    <!-- Generator: Sketch 64 (93537) - https://sketch.com -->
    <title>ic</title>
    <desc>Created with Sketch.</desc>
    <g id="Single-Position-Page-(Common)" stroke="none" stroke-width="1" fill="none" fill-rule="evenodd">
        <g id="Artboard-(Position---Common)" transform="translate(-1839.000000, -56.000000)" fill="#42454D" fill-rule="nonzero">
            <g id="Header" transform="translate(344.000000, 41.000000)">
                <g id="ic" transform="translate(1495.000000, 15.000000)">
                    <path d="M22.6993652,0 L2.30063477,0 C1.03208008,0 0,1.01916627 0,2.27349878 C0,3.52624006 1.03208008,4.54545455 2.30063477,4.54545455 L22.6993652,4.54545455 C23.9679199,4.54545455 25,3.52624006 25,2.27349878 C25,1.01916627 23.9679199,0 22.6993652,0 Z" id="Path"></path>
                    <path d="M22.6993652,7.03463203 L2.30063477,7.03463203 C1.03208008,7.03463203 0,8.0537983 0,9.30813082 C0,10.5608721 1.03208008,11.5800866 2.30063477,11.5800866 L22.6993652,11.5800866 C23.9679199,11.5800866 25,10.5608721 25,9.30813082 C25,8.0537983 23.9679199,7.03463203 22.6993652,7.03463203 L22.6993652,7.03463203 Z" id="Path"></path>
                    <path d="M22.6993652,14.1774892 L2.30063477,14.1774892 C1.03208008,14.1774892 0,15.1967037 0,16.450988 C0,17.7037292 1.03208008,18.7229437 2.30063477,18.7229437 L22.6993652,18.7229437 C23.9679199,18.7229437 25,17.7037292 25,16.450988 C25,15.1967037 23.9679199,14.1774892 22.6993652,14.1774892 Z" id="Path"></path>
                </g>
            </g>
        </g>
    </g>
</svg>