<?xml version="1.0" encoding="UTF-8"?>
<svg width="33px" height="32px" viewBox="0 0 33 32" version="1.1" xmlns="http://www.w3.org/2000/svg" xmlns:xlink="http://www.w3.org/1999/xlink">
    <!-- Generator: Sketch 64 (93537) - https://sketch.com -->
    <title>ic_home</title>
    <desc>Created with Sketch.</desc>
    <g id="Single-Position-Page-(Orders)" stroke="none" stroke-width="1" fill="none" fill-rule="evenodd">
        <g id="Artboard-(Position---Orders)" transform="translate(-41.000000, -184.000000)" fill="#42454D" fill-rule="nonzero">
            <g id="Side-Menu">
                <g id="Navigation">
                    <g id="Home" transform="translate(41.000000, 184.000000)">
                        <g id="ic_home">
                            <path d="M32.4457454,14.2169508 L29.6579554,11.6254512 L29.6579554,3.03229326 C29.6579554,2.48553425 29.2234771,2.04220902 28.6874851,2.04220902 L21.9769505,2.04220902 C21.441023,2.04220902 21.0064802,2.48546849 21.0064802,3.03229326 L21.0064802,3.58293186 L17.6397081,0.453155711 C16.9898275,-0.151073822 16.0098181,-0.151008066 15.3601953,0.453089955 L0.554157946,14.2170166 C0.0336347069,14.7009788 -0.138390618,15.446649 0.115941316,16.1166343 C0.370337703,16.7866195 0.989731998,17.2194896 1.69401103,17.2194896 L4.05873083,17.2194896 L4.05873083,31.00985 C4.05873083,31.556609 4.49320918,32 5.02920116,32 L13.1446844,32 C13.6806119,32 14.1151547,31.5566748 14.1151547,31.00985 L14.1151547,22.6367766 L18.8847486,22.6367766 L18.8847486,31.0099158 C18.8847486,31.5566748 19.319227,32 19.8552189,32 L27.9703799,32 C28.5063074,32 28.9408502,31.5567405 28.9407858,31.0099158 L28.9407858,17.2195553 L31.3060212,17.2195553 C32.0102358,17.2195553 32.6296945,16.7866195 32.8840909,16.1167 C33.1383584,15.446649 32.9663975,14.7009788 32.4457454,14.2169508 Z M27.9703799,15.2393869 C27.4344524,15.2393869 26.9999096,15.6826463 26.9999096,16.2294711 L26.9999096,30.0198315 L20.8257537,30.0198315 L20.8257537,21.6466923 C20.8257537,21.0999333 20.3912109,20.6566081 19.8552834,20.6566081 L13.1446844,20.6566081 C12.6087569,20.6566081 12.1742141,21.0998676 12.1742141,21.6466923 L12.1742141,30.0198315 L5.99960704,30.0198315 L5.99960704,16.2294711 C5.99960704,15.6827121 5.56512869,15.2393869 5.02913671,15.2393869 L2.33609281,15.2393869 L16.5000483,2.07245667 L21.3234606,6.55640661 C21.6075698,6.82048168 22.0176849,6.88853888 22.3691477,6.7302648 C22.7206749,6.57179346 22.9474853,6.21658093 22.9474853,5.82454518 L22.9474853,4.0223775 L27.7171437,4.0223775 L27.7171437,12.0627269 C27.7171437,12.341334 27.832128,12.6069214 28.0339951,12.7945883 L30.663875,15.2393869 L27.9703799,15.2393869 Z" id="Shape"></path>
                        </g>
                    </g>
                </g>
            </g>
        </g>
    </g>
</svg>