<?xml version="1.0" encoding="UTF-8"?>
<svg width="34px" height="33px" viewBox="0 0 34 33" version="1.1" xmlns="http://www.w3.org/2000/svg" xmlns:xlink="http://www.w3.org/1999/xlink">
    <!-- Generator: Sketch 64 (93537) - https://sketch.com -->
    <title>ic_positions</title>
    <desc>Created with Sketch.</desc>
    <g id="Single-Portfolio-Page-(Positions)" stroke="none" stroke-width="1" fill="none" fill-rule="evenodd">
        <g id="Artboard" transform="translate(-43.000000, -350.000000)" fill="#42454D" fill-rule="nonzero">
            <g id="Side-Menu">
                <g id="Navigation">
                    <g id="Positions" transform="translate(43.000000, 350.000000)">
                        <g id="ic_positions">
                            <path d="M32.7797818,3.20491803 L12.6464477,3.20491803 C11.9143568,3.20491803 11.4262295,3.70652994 11.4262295,4.45901639 C11.4262295,5.21150284 12.0363386,5.71311475 12.6464477,5.71311475 L32.7797818,5.71311475 C33.5118727,5.71311475 34,5.21150284 34,4.45901639 C34,3.70652994 33.5119394,3.20491803 32.7797818,3.20491803 Z" id="Path"></path>
                            <path d="M32.9017635,14.9098361 L12.6464477,14.9098361 C11.9143568,14.9098361 11.4262295,15.411448 11.4262295,16.1639344 C11.4262295,16.9164209 11.9142901,17.4180328 12.6464477,17.4180328 L32.7797818,17.4180328 C33.5118727,17.4180328 34,16.9164209 34,16.1639344 C34,15.411448 33.5119394,14.9098361 32.9017635,14.9098361 Z" id="Path"></path>
                            <path d="M32.9017635,26.6147541 L12.6464477,26.6147541 C11.9143568,26.6147541 11.4262295,27.116366 11.4262295,27.8688525 C11.4262295,28.6212703 11.9142901,29.1229508 12.6464477,29.1229508 L32.7797818,29.1229508 C33.5118727,29.1229508 34,28.6213389 34,27.8688525 C34,27.116366 33.5119394,26.6147541 32.9017635,26.6147541 Z" id="Path"></path>
                            <path d="M4.38934426,0 C1.95079745,0 0,1.95081226 0,4.38931092 C0,6.82780958 1.95079745,8.77868852 4.38934426,8.77868852 C6.8278244,8.77868852 8.77868852,6.82787626 8.77868852,4.38931092 C8.77868852,1.95081226 6.8278244,0 4.38934426,0 Z M4.38934426,6.46207812 C3.29195819,6.46207812 2.43854682,5.60866027 2.43854682,4.51126586 C2.43854682,3.41387145 3.29202487,2.5604536 4.38934426,2.5604536 C5.48673034,2.5604536 6.34014171,3.41393813 6.34014171,4.51126586 C6.34014171,5.48670533 5.48666366,6.46207812 4.38934426,6.46207812 Z" id="Shape"></path>
                            <path d="M4.38934426,11.704918 C1.95079745,11.704918 0,13.6557822 0,16.0942623 C0,18.5327424 1.95079745,20.4836066 4.38934426,20.4836066 C6.8278244,20.4836066 8.77868852,18.5328091 8.77868852,16.0942623 C8.77868852,13.6557155 6.8278244,11.704918 4.38934426,11.704918 Z M4.38934426,18.0450597 C3.29195819,18.0450597 2.43854682,17.1915817 2.43854682,16.0942623 C2.43854682,14.9969429 3.29202487,14.1434648 4.38934426,14.1434648 C5.48673034,14.1434648 6.34014171,14.9968762 6.34014171,16.0942623 C6.34014171,17.1916484 5.48666366,18.0450597 4.38934426,18.0450597 Z" id="Shape"></path>
                            <path d="M4.38934426,23.4098361 C1.95079745,23.4098361 0,25.3606335 0,27.7991803 C0,30.2377271 1.95079745,32.1885246 4.38934426,32.1885246 C6.8278244,32.1885246 8.77868852,30.2377271 8.77868852,27.7991803 C8.77868852,25.4825208 6.8278244,23.4098361 4.38934426,23.4098361 Z M4.38934426,29.8718651 C3.29195819,29.8718651 2.43854682,29.0183871 2.43854682,27.9210677 C2.43854682,26.8237483 3.29202487,25.9702702 4.38934426,25.9702702 C5.48673034,25.9702702 6.34014171,26.8237483 6.34014171,27.9210677 C6.34014171,29.0183871 5.48666366,29.8718651 4.38934426,29.8718651 Z" id="Shape"></path>
                        </g>
                    </g>
                </g>
            </g>
        </g>
    </g>
</svg>