<?xml version="1.0" encoding="UTF-8"?>
<svg width="33px" height="30px" viewBox="0 0 33 30" version="1.1" xmlns="http://www.w3.org/2000/svg" xmlns:xlink="http://www.w3.org/1999/xlink">
    <!-- Generator: Sketch 64 (93537) - https://sketch.com -->
    <title>ic_portfolio</title>
    <desc>Created with Sketch.</desc>
    <g id="Single-Position-Page-(Orders)" stroke="none" stroke-width="1" fill="none" fill-rule="evenodd">
        <g id="Artboard-(Position---Orders)" transform="translate(-43.000000, -269.000000)" fill="#42454D" fill-rule="nonzero">
            <g id="Side-Menu">
                <g id="Navigation">
                    <g id="Portfolios" transform="translate(43.000000, 269.000000)">
                        <g id="ic_portfolio">
                            <path d="M32.0392456,3.88260568 C32.0372314,3.88260568 32.0352173,3.88235294 32.0332031,3.88235294 L23.2675781,3.88235294 L23.2675781,2.91176471 C23.2675781,1.30625 21.9664307,0 20.3671875,0 L12.6328125,0 C11.0335693,0 9.73242188,1.30625 9.73242188,2.91176471 L9.73242188,3.88235294 L0.966796875,3.88235294 C0.428512605,3.88235294 0,4.32518382 0,4.85294118 L0,26.2058824 C0,27.8113971 1.30114746,29.1176471 2.90039062,29.1176471 L30.0996094,29.1176471 C31.6988525,29.1176471 33,27.8113971 33,26.2058824 L33,4.87341451 C33,4.87215074 33,4.87088696 33,4.86962313 C32.9629898,4.23216912 32.5724945,3.88614432 32.0392456,3.88260568 Z M11.6660156,2.91176471 C11.6660156,2.37667741 12.0998154,1.94117647 12.6328125,1.94117647 L20.3671875,1.94117647 C20.9001846,1.94117647 21.3339844,2.37667741 21.3339844,2.91176471 L21.3339844,3.88235294 L11.6660156,3.88235294 L11.6660156,2.91176471 Z M30.6917725,5.82352941 L27.689415,14.865671 C27.5577393,15.2627527 27.1891479,15.5294118 26.7724686,15.5294118 L21.3339844,15.5294118 L21.3339844,14.5588235 C21.3339844,14.0227252 20.9011917,13.5882353 20.3671875,13.5882353 L12.6328125,13.5882353 C12.0988083,13.5882353 11.6660156,14.0227252 11.6660156,14.5588235 L11.6660156,15.5294118 L6.22753145,15.5294118 C5.81085205,15.5294118 5.44226074,15.2627527 5.31058501,14.865671 L2.30822754,5.82352941 L30.6917725,5.82352941 Z M19.4003906,15.5294118 L19.4003906,17.4705882 L13.5996094,17.4705882 L13.5996094,15.5294118 L19.4003906,15.5294118 Z M31.0664062,26.2058824 C31.0664062,26.7409697 30.6326065,27.1764706 30.0996094,27.1764706 L2.90039062,27.1764706 C2.36739351,27.1764706 1.93359375,26.7409697 1.93359375,26.2058824 L1.93359375,10.8339384 L3.47618868,15.4796186 C3.87146757,16.6706112 4.9772415,17.4705882 6.22753145,17.4705882 L11.6660156,17.4705882 L11.6660156,18.4411765 C11.6660156,18.9772748 12.0988083,19.4117647 12.6328125,19.4117647 L20.3671875,19.4117647 C20.9011917,19.4117647 21.3339844,18.9772748 21.3339844,18.4411765 L21.3339844,17.4705882 L26.7724686,17.4705882 C28.0227585,17.4705882 29.1285324,16.6706112 29.5238113,15.4796186 L31.0664062,10.8339384 L31.0664062,26.2058824 Z" id="Shape"></path>
                        </g>
                    </g>
                </g>
            </g>
        </g>
    </g>
</svg>